<?xml version="1.0" encoding="utf-8"?>
<!-- Generator: Adobe Illustrator 22.1.0, SVG Export Plug-In . SVG Version: 6.00 Build 0)  -->
<svg version="1.1" id="Capa_1" xmlns="http://www.w3.org/2000/svg" xmlns:xlink="http://www.w3.org/1999/xlink" x="0px" y="0px"
	 viewBox="0 0 230.2 164" style="enable-background:new 0 0 230.2 164;" xml:space="preserve">
<g>
	<path d="M230,16.5c0-0.3,0.2-0.5,0.2-0.8l-70.2,67.7l70.2,65.5c0-0.5-0.1-0.9-0.1-1.4L230,16.5L230,16.5z"/>
	<path d="M149.2,93.8l-28.7,27.6c-1.5,1.4-3.3,2.1-5.2,2.1c-1.8,0-3.7-0.7-5.1-2L81.6,94.8L11,162.9c1.7,0.6,3.6,1.1,5.5,1.1h197.7
		c2.9,0,5.6-0.9,7.9-2.2L149.2,93.8z"/>
	<path d="M115.3,105.7L222.4,2.4C220,1,217.2,0,214.2,0H16.5C12.6,0,8.9,1.5,6.1,3.9L115.3,105.7z"/>
	<path d="M0,19v128.5c0,1.5,0.3,2.9,0.7,4.3l69.7-67.2L0,19z"/>
</g>
</svg>
