<?xml version="1.0" encoding="utf-8"?>
<!-- Generator: Adobe Illustrator 22.1.0, SVG Export Plug-In . SVG Version: 6.00 Build 0)  -->
<svg version="1.1" id="Layer_1" xmlns="http://www.w3.org/2000/svg" xmlns:xlink="http://www.w3.org/1999/xlink" x="0px" y="0px"
	 viewBox="0 0 103.6 106.1" style="enable-background:new 0 0 103.6 106.1;" xml:space="preserve">
<style type="text/css">
	.st0{fill:#DCCFCF;}
</style>
<g>
	<path class="st0" d="M102.9,100.4c-0.9-1.8-2.4-3.2-3.9-4.6c-3.6-3.3-7.9-5.5-12.4-7.4c-2.1-0.8-4.2-1.6-6.2-2.4l0,0
		c0,0-6.1-2.2-8-3c-0.1,0-0.1-0.1-0.2-0.1l0,0l0,0c-1.3-0.6-2.5-1.2-3.6-2c-2-1.3-3.3-3.1-3.4-5.5C65,73.8,65,71.9,65,70.1
		c0-0.7-0.2-1.3,0-2c0.1-0.6,0.1-1.2,0.5-1.8c0.3-0.5,0.6-0.9,0.9-1.4c0.5-0.8,1-1.5,1.5-2.4c-0.1,0-0.2,0-0.2,0
		c-2,0.8-4.1,1.3-6.2,1.8c-1,0.2-2,0.3-2.9,0.5c-0.2,0.1-0.6,0.1-0.7,0.3c-1.7,2.4-5,3.3-7.7,2c-3-1.4-4.4-5.3-2.9-8.3
		c1.9-3.7,6.6-4.6,9.7-1.9c0.2,0.2,0.5,0.3,0.8,0.2c1-0.2,2.1-0.3,3.1-0.6c1.7-0.5,3.4-1,5-1.6c1.9-0.7,3.6-1.7,5.2-2.9
		c0.1-0.1,0.2-0.2,0.2-0.3c0.1-0.5,0.1-1,0.1-1.4c0-0.7,0.1-1.3,0.6-1.8c0.1-0.1,0.2-0.3,0.3-0.5c0.9-1.5,1.3-3.1,1.7-4.7
		c0.3-1.7,0.6-3.3,0.5-5c0-1.1-0.4-2.2-0.9-3.2c-0.1-0.2-0.2-0.5-0.3-0.8l0,0l0,0c0-0.2,0.1-3,0.1-5.4l0,0l0,0
		c0.1-1.6,0-3.2-0.3-4.7c-0.3-1.8-0.8-3.6-1.6-5.3c-1.2-2.7-2.8-5.1-5.1-7c-1.2-1-2.4-1.8-3.8-2.4c-1.4-0.6-2.8-1.1-4.2-1.4
		c-1.6-0.4-3.2-0.6-4.8-0.6c-1.7-0.1-3.5-0.1-5.2,0.1c-0.2,0-0.4,0.1-0.6,0.1l0,0c-0.1,0-0.2,0-0.4,0C44,8.2,40.5,9,36.9,12.3
		c-0.3,0.3-0.7,0.6-1,0.9c-0.1,0.1-0.2,0.2-0.3,0.3l0,0c-0.1,0.1-0.2,0.2-0.3,0.3l0,0l-0.1,0.1c-0.3,0.4-0.6,0.7-0.9,1l0,0l0,0
		c-1.3,1.7-1.8,3-1.9,3.4c-0.1,0.2-0.2,0.4-0.3,0.6c-0.7,1.6-1.2,3.3-1.5,5c-0.2,1.5-0.4,3-0.4,4.6c0,2,0.1,3.9,0.1,5.9
		c0,0.1,0,0.3-0.1,0.4c-0.6,1-1,2.1-1.1,3.3c-0.1,2,0.2,3.9,0.7,5.8c0.4,1.9,1,3.7,2.3,5.2c0.1,0.1,0.1,0.2,0.1,0.3
		c0.2,2,0.4,3.9,0.7,5.9c0.2,1.4,0.5,2.8,1.2,4.1c1.2,2.5,2.7,4.7,4.3,6.9c0.1,0.1,0.2,0.4,0.2,0.5c0.2,3,0.3,6.1-0.2,9.1
		c-0.1,0.8-0.3,1.7-0.7,2.4c-0.8,1.4-2.1,2.4-3.4,3.2c-1.7,1-3.6,1.8-5.5,2.5s-3.9,1.4-5.8,2.1c-2.1,0.8-4.2,1.5-6.2,2.4
		c-1.7,0.7-3.4,1.5-5,2.3c-1.2,0.6-2.3,1.3-3.4,2l0,0c0,0-0.1,0-0.1,0.1c-0.1,0-0.1,0.1-0.2,0.1c-1.9,1.2-3.2,2.6-3.2,2.6l0,0
		c-0.1,0-0.1,0.1-0.2,0.1C3.3,97,2,98.3,1.1,99.9c-0.6,1-1,2-0.8,3.1c0.2,1.2,0.7,2.2,2.1,2.5c1.1,0.2,2.2,0.4,3.3,0.4
		c5,0,10.1,0,15.1,0c0.1,0,0.2,0,0.3,0H22l0,0l0,0c0,0,0.1,0,0.2,0c0.5,0,1.1,0,1.6,0c0.1,0,0.2,0,0.2,0h1l0,0l0,0h0.6
		c8.5,0,17.1,0,25.6,0c0.1,0,0.1,0,0.2,0h2l0,0l0,0h0.1c0.6,0,1.2,0,1.8,0h1.1h29.3l0,0h0.1c2,0,4,0,6,0h2.9l0,0c1,0,1.9,0,2.9,0
		c1.1,0,2.3-0.1,3.4-0.2c1.3-0.1,2.2-0.8,2.6-2C103.8,102.7,103.5,101.5,102.9,100.4z"/>
	<path class="st0" d="M19.1,49.8c0.8,1,1.8,1.6,3,1.8c0.1,0,0.2,0,0.3,0.1c0.1,0,0.1,0,0.1,0c0.8,0.1,2.2,0.2,3.5-0.3l0,0l0,0
		c0.8-0.2,1.4-0.9,1.4-1.8c-0.1-2.1-0.2-4.2-0.3-6.3c-0.2-2.9-0.3-5.9-0.5-8.8c0-0.7-0.3-1.2-0.8-1.7c-0.1-0.1-0.2-0.3-0.2-0.4
		c-0.1-3.8,0.2-7.6,1.6-11.2c0.9-2.5,2.1-4.7,3.7-6.8c2.1-2.8,4.8-5.2,7.8-7c1.7-1,3.4-1.8,5.2-2.3c2.2-0.7,4.4-1.1,6.7-1.2
		c2.8-0.1,5.5,0.2,8.2,0.9C60.7,5.3,62.4,6,64,6.9c3.3,1.8,6.1,4.2,8.5,7.1c1.7,2.2,3.1,4.7,4,7.3c0.4,1.2,0.8,2.5,1,3.7l0,0
		c0.1,0.7,0.3,2.7,0.4,4.6v0.3l0,0c0,0.8,0,1.6,0,2.2l0,0l0,0l0,0l0,0l0,0l0,0c-0.1,0.1-0.1,0.3-0.2,0.4c-0.6,0.4-0.9,1-0.9,1.8
		c-0.1,2.1-0.2,4.2-0.3,6.3c-0.2,3-0.3,6-0.5,8.9c0,0.2-0.1,0.3-0.2,0.4c-2.1,2.4-4.5,4.3-7.4,5.8c-2,1-4.1,1.8-6.3,2.3
		c-1.7,0.4-3.4,0.6-5,1c-0.6,0.1-0.9-0.1-1.2-0.5c-1.2-1.5-3.4-1.9-5.1-1c-1.7,0.9-2.4,2.3-2.3,4.2c0.1,1.6,1.5,3.4,3.1,3.7
		c2,0.5,4-0.3,4.9-2.2c0.2-0.4,0.5-0.5,0.8-0.5c1.3-0.2,2.5-0.3,3.8-0.6c2.6-0.6,5.1-1.3,7.5-2.4c4.2-1.9,7.9-4.6,10.7-8.2
		c0.2-0.3,0.5-0.4,0.9-0.4c1.3,0.2,2.4-0.2,3.4-1c1.2-1,2-2.4,2.1-4c0.2-2.8,0.3-5.7,0.4-8.5c0-0.5-0.1-1.1-0.2-1.6
		c-0.4-1.6-1.3-2.9-2.8-3.6c-0.4-0.2-0.9-0.3-1.4-0.5v-2.7l0,0c0,0,0-0.4,0-1V28l0,0c0-0.2,0-0.4,0-0.7l0,0l0,0c0-0.2,0-0.3,0-0.5
		l0,0c0-0.5-0.1-0.9-0.2-1.5l0,0v-0.1l0,0c-0.1-0.5-0.1-0.9-0.2-1.4c0-0.1,0-0.1,0-0.2s0-0.1,0-0.2c-0.1-0.5-0.2-0.9-0.3-1.4l0,0
		c-0.4-1.5-0.9-3-1.5-4.4c-1.2-2.8-2.8-5.4-4.8-7.7c-2.3-1.9-4.7-4-7.5-5.6C65,3,62.7,2,60.3,1.2C57.6,0.4,54.8,0,52,0
		c-2.4,0-4.7,0.2-7,0.8c-2.9,0.7-5.6,1.7-8.2,3.2c-2.9,1.7-5.4,3.8-7.6,6.3c-1.6,1.9-3,3.9-4.1,6.1c-1,1.9-1.8,3.9-2.3,6
		c-0.1,0.6-0.3,1.2-0.4,1.8c0,0,0,0.1,0,0.2c-0.1,0.4-0.1,0.7-0.2,1.1s-0.1,0.8-0.2,1.3c0,0.3-0.1,0.5-0.1,0.7
		c-0.1,0.9-0.1,1.6-0.1,1.9l0,0c0,0.1,0,0.1,0,0.1l0,0c0,0.9,0,1.7,0,2.6c0,0.2,0,0.3,0,0.4c-0.5,0.1-1,0.2-1.4,0.4
		c-1.9,0.9-3,2.6-3,4.6c0,3.1,0.2,6.1,0.4,9.2C17.9,47.8,18.4,48.9,19.1,49.8z"/>
</g>
</svg>
