<?xml version="1.0" encoding="utf-8"?>
<!-- Generator: Adobe Illustrator 22.1.0, SVG Export Plug-In . SVG Version: 6.00 Build 0)  -->
<svg version="1.1" id="Capa_1" xmlns="http://www.w3.org/2000/svg" xmlns:xlink="http://www.w3.org/1999/xlink" x="0px" y="0px"
	 viewBox="0 0 169.6 230.3" style="enable-background:new 0 0 169.6 230.3;" xml:space="preserve">
<g>
	<path d="M84.8,0C38,0,0,38.1,0,84.8c0,12.2,2.5,23.8,7.4,34.6c21.2,46.4,61.9,95.4,73.8,109.3c0.9,1,2.2,1.6,3.6,1.6
		s2.7-0.6,3.6-1.6c12-13.9,52.6-62.9,73.8-109.3c4.9-10.8,7.4-22.4,7.4-34.6C169.6,38.1,131.6,0,84.8,0z M84.8,128.9
		c-24.3,0-44.1-19.8-44.1-44.1s19.8-44.1,44.1-44.1s44.1,19.8,44.1,44.1C128.9,109.1,109.1,128.9,84.8,128.9z"/>
</g>
</svg>
