<?xml version="1.0" encoding="utf-8"?>
<!-- Generator: Adobe Illustrator 22.1.0, SVG Export Plug-In . SVG Version: 6.00 Build 0)  -->
<svg version="1.1" id="Layer_1" xmlns="http://www.w3.org/2000/svg" xmlns:xlink="http://www.w3.org/1999/xlink" x="0px" y="0px"
	 viewBox="0 0 132 108.3" style="enable-background:new 0 0 132 108.3;" xml:space="preserve">
<g>
	<path d="M132,14.8c-0.1-3-1.7-5.4-4.4-6.2c-1.2-0.4-2.5-0.5-3.8-0.5c-4.6,0-9.2,0-13.7,0c-22.7,0-59.5,0-82.7-0.1
		c-0.2-0.7-0.4-1.4-0.6-2.1c-0.9-3.1-2.9-4.8-6-5.5C19.9,0.2,19,0.1,18.1,0h-16C1.1,0.4,0.4,1.2,0,2.2v1.2C0.6,5,1.8,5.6,3.5,5.6
		c4-0.1,7.9,0,11.9,0c2.7,0,5.4,2,6.1,4.4c2.9,9.9,5.8,19.8,8.7,29.7c2.4,8.1,4.7,16.2,7,24.4c0.8,2.8,1.5,5.6,3,8.1
		c3,5.1,7.3,7.8,13.4,7.7c16.6-0.1,33.2,0,49.8,0c0.2,0,0.5,0,0.7,0c1.5-0.1,2.6-1.3,2.6-2.8c0-1.6-1.2-2.7-3-2.7
		c-16.9,0-33.8,0-50.7,0c-4.6,0-8.9-3.8-9.5-8.4h0.9c19.3,0,38.5,0,57.8,0c0.8,0,1.6,0,2.4-0.1c3.3-0.2,6-1.5,7.6-4.5
		c0.9-1.7,1.9-3.3,2.7-5c5.3-11.7,10.5-23.3,15.7-35C131.5,19.3,132,17.1,132,14.8z"/>
	<path d="M103.6,82.6c-7.1,0-12.9,5.7-12.9,12.8c0,7.1,5.8,12.9,12.9,12.9c7.1,0,12.8-5.8,12.8-12.8
		C116.4,88.4,110.6,82.6,103.6,82.6z M103.5,101c-3,0-5.5-2.5-5.5-5.5s2.5-5.5,5.5-5.5s5.5,2.5,5.5,5.5S106.5,101,103.5,101z"/>
	<g>
		<path d="M51.3,82.6c-7.1,0-12.9,5.8-12.9,12.8c0,7.1,5.7,12.9,12.8,12.9c7.1,0,12.9-5.7,12.9-12.8C64.1,88.5,58.3,82.6,51.3,82.6z
			 M51.2,101c-3,0-5.5-2.5-5.5-5.5s2.5-5.5,5.5-5.5s5.5,2.5,5.5,5.5S54.3,101,51.2,101z"/>
	</g>
</g>
</svg>
