<?xml version="1.0" encoding="utf-8"?>
<!-- Generator: Adobe Illustrator 22.1.0, SVG Export Plug-In . SVG Version: 6.00 Build 0)  -->
<svg version="1.1" id="Layer_1" xmlns="http://www.w3.org/2000/svg" xmlns:xlink="http://www.w3.org/1999/xlink" x="0px" y="0px"
	 viewBox="0 0 24 19.7" style="enable-background:new 0 0 24 19.7;" xml:space="preserve">
<style type="text/css">
	.st0{fill:#FFFFFF;}
</style>
<g>
	<path class="st0" d="M24,2.7c0-0.5-0.3-1-0.8-1.1c-0.2-0.1-0.5-0.1-0.7-0.1c-0.8,0-1.7,0-2.5,0c-4.1,0-10.8,0-15,0
		c0-0.1-0.1-0.3-0.1-0.4c-0.2-0.6-0.5-0.9-1.1-1C3.6,0,3.5,0,3.3,0H0.4C0.2,0.1,0.1,0.2,0,0.4v0.2C0.1,0.9,0.3,1,0.6,1
		c0.7,0,1.4,0,2.2,0c0.5,0,1,0.4,1.1,0.8C4.4,3.6,5,5.4,5.5,7.2c0.4,1.5,0.9,2.9,1.3,4.4c0.1,0.5,0.3,1,0.5,1.5
		c0.5,0.9,1.3,1.4,2.4,1.4c3,0,6,0,9.1,0c0,0,0.1,0,0.1,0c0.3,0,0.5-0.2,0.5-0.5c0-0.3-0.2-0.5-0.5-0.5c-3.1,0-6.1,0-9.2,0
		c-0.8,0-1.6-0.7-1.7-1.5h0.2c3.5,0,7,0,10.5,0c0.1,0,0.3,0,0.4,0c0.6,0,1.1-0.3,1.4-0.8c0.2-0.3,0.3-0.6,0.5-0.9
		c1-2.1,1.9-4.2,2.9-6.4C23.9,3.5,24,3.1,24,2.7z"/>
	<path class="st0" d="M18.8,15c-1.3,0-2.3,1-2.3,2.3c0,1.3,1.1,2.3,2.3,2.3s2.3-1.1,2.3-2.3C21.2,16.1,20.1,15,18.8,15z M18.8,18.4
		c-0.5,0-1-0.5-1-1s0.5-1,1-1s1,0.5,1,1S19.4,18.4,18.8,18.4z"/>
	<g>
		<path class="st0" d="M9.3,15C8,15,7,16.1,7,17.3c0,1.3,1,2.3,2.3,2.3s2.3-1,2.3-2.3C11.7,16.1,10.6,15,9.3,15z M9.3,18.4
			c-0.5,0-1-0.5-1-1s0.5-1,1-1c0.5,0,1,0.5,1,1S9.9,18.4,9.3,18.4z"/>
	</g>
</g>
</svg>
