<svg width="50" height="57" viewBox="0 0 50 57" fill="none" xmlns="http://www.w3.org/2000/svg">
<path d="M33.8451 17.7851C33.7149 17.3848 33.3687 17.0932 32.9522 17.0327L28.1414 16.3349L25.9889 11.9763C25.8024 11.599 25.4182 11.3601 24.9974 11.3601H24.9972C24.5762 11.3602 24.1919 11.5993 24.0057 11.9768L21.8555 16.3365L17.0451 17.0369C16.6285 17.0975 16.2826 17.3894 16.1527 17.7897C16.0227 18.1901 16.1313 18.6295 16.4328 18.9232L19.9147 22.3154L19.0942 27.1067C19.0231 27.5217 19.1939 27.9409 19.5345 28.1883C19.7271 28.3282 19.9551 28.3993 20.1843 28.3993C20.3603 28.3993 20.5372 28.3572 20.699 28.2721L25.0011 26.0089L29.3044 28.2698C29.677 28.4656 30.1285 28.4329 30.469 28.1853C30.8095 27.9378 30.9799 27.5185 30.9087 27.1036L30.0857 22.3128L33.5658 18.9188C33.867 18.6249 33.9752 18.1854 33.8451 17.7851ZM28.1252 21.1354C27.8646 21.3895 27.7457 21.7555 27.8073 22.1143L28.3494 25.2698L25.515 23.7807C25.1929 23.6114 24.8079 23.6115 24.4858 23.7809L21.6522 25.2716L22.1926 22.1157C22.2541 21.757 22.135 21.3909 21.8743 21.1369L19.581 18.9027L22.7494 18.4414C23.1096 18.389 23.4209 18.1626 23.5819 17.8363L24.998 14.9648L26.4158 17.8356C26.5771 18.162 26.8885 18.3881 27.2487 18.4403L30.4173 18.8999L28.1252 21.1354Z" fill="#646464"/>
<path d="M49.8529 48.5874L40.7123 32.6886C43.4727 29.243 45.1265 24.8745 45.1265 20.1265C45.1265 9.02871 36.0977 0 25 0C13.9022 0 4.87353 9.02871 4.87353 20.1265C4.87353 24.8745 6.52721 29.243 9.28763 32.6886L0.147124 48.5874C-0.0627666 48.9525 -0.0470634 49.4053 0.187708 49.7551C0.42248 50.1047 0.835957 50.2907 1.25297 50.2347L8.38714 49.2767L11.1246 55.934C11.2849 56.3238 11.6529 56.5887 12.0736 56.6167C12.0984 56.6184 12.123 56.6192 12.1476 56.6192C12.5407 56.6192 12.9066 56.4098 13.105 56.0662L22.3326 40.0837C22.334 40.0813 22.335 40.0788 22.3364 40.0762C23.2083 40.192 24.0972 40.2528 25.0002 40.2528C25.9032 40.2528 26.7921 40.192 27.664 40.0762C27.6654 40.0787 27.6664 40.0812 27.6679 40.0837L36.8954 56.0662C37.0938 56.4098 37.4598 56.6192 37.8528 56.6192C37.8774 56.6192 37.9021 56.6184 37.9268 56.6167C38.3475 56.5887 38.7155 56.3238 38.8759 55.934L41.6134 49.2767L48.7476 50.2347C49.1655 50.2907 49.5781 50.1047 49.8128 49.7551C50.0469 49.4053 50.0627 48.9525 49.8529 48.5874ZM12.3143 53.0121L10.3216 48.1661L12.1099 45.2478C12.429 44.7271 12.2656 44.0462 11.7448 43.7272C11.2241 43.4081 10.5432 43.5715 10.2242 44.0922L8.41711 47.0411L3.18312 47.7438L10.844 34.4188C13.3534 36.9044 16.5113 38.736 20.0385 39.6335L12.3143 53.0121ZM24.9999 38.0412C15.1217 38.0412 7.08511 30.0047 7.08511 20.1265C7.08511 10.2482 15.1217 2.2117 24.9999 2.2117C34.8781 2.2117 42.9146 10.2482 42.9146 20.1265C42.9146 30.0047 34.8781 38.0412 24.9999 38.0412ZM41.5828 47.0411L39.7757 44.0922C39.4567 43.5715 38.7758 43.4079 38.255 43.7272C37.7343 44.0463 37.5709 44.7271 37.89 45.2478L39.6783 48.1661L37.6855 53.0121L29.9614 39.6335C33.4886 38.736 36.6466 36.9044 39.1559 34.4188L46.8167 47.7438L41.5828 47.0411Z" fill="#646464"/>
<path d="M24.9994 5.75037C22.5316 5.75037 20.0968 6.38645 17.9582 7.59006C17.426 7.88952 17.2373 8.56387 17.5368 9.09611C17.8363 9.62836 18.5106 9.81724 19.0429 9.51755C20.851 8.49995 22.9108 7.96207 24.9994 7.96207C31.7068 7.96207 37.1638 13.419 37.1638 20.1264C37.1638 21.9592 36.7667 23.7203 35.9835 25.3606C35.7204 25.9118 35.9539 26.5719 36.505 26.835C36.6588 26.9085 36.8209 26.9432 36.9807 26.9432C37.3934 26.9432 37.7897 26.7109 37.9794 26.3135C38.9057 24.3733 39.3755 22.2917 39.3755 20.1264C39.3755 12.1995 32.9265 5.75037 24.9994 5.75037Z" fill="#646464"/>
<path d="M35.2905 28.5775C34.8523 28.1522 34.1522 28.1627 33.7269 28.6009L33.7023 28.6262C33.2757 29.0631 33.284 29.7633 33.7209 30.1899C33.936 30.3999 34.2148 30.5045 34.4933 30.5045C34.7807 30.5045 35.068 30.3932 35.2847 30.1712L35.3139 30.1413C35.7393 29.703 35.7288 29.0029 35.2905 28.5775Z" fill="#646464"/>
<path d="M32.3629 31.223C32.0682 30.6881 31.3957 30.4934 30.8608 30.7882C29.0769 31.7712 27.05 32.2907 24.9992 32.2907C18.2918 32.2907 12.8349 26.8338 12.8349 20.1264C12.8349 18.3693 13.201 16.6747 13.923 15.0897C14.1763 14.5339 13.9309 13.8781 13.3751 13.6249C12.8193 13.3718 12.1635 13.617 11.9103 14.1728C11.0561 16.0477 10.623 18.0507 10.623 20.1264C10.623 28.0534 17.0721 34.5024 24.9991 34.5024C27.4221 34.5024 29.8182 33.8879 31.9281 32.7252C32.463 32.4304 32.6578 31.7579 32.3629 31.223Z" fill="#646464"/>
<path d="M16.0427 10.2732C15.5958 9.85688 14.896 9.88187 14.4798 10.3286L14.4552 10.3551C14.0405 10.8034 14.0676 11.503 14.516 11.9177C14.7286 12.1146 14.9979 12.2119 15.2666 12.2119C15.5641 12.2119 15.8607 12.0926 16.0786 11.857L16.0981 11.8361C16.5143 11.3893 16.4896 10.6895 16.0427 10.2732Z" fill="#646464"/>
</svg>
