<svg width="50" height="59" viewBox="0 0 50 59" fill="none" xmlns="http://www.w3.org/2000/svg">
<path d="M49.0004 5.63078C48.1947 4.6833 47.0197 4.14012 45.7768 4.14012H41.6971V2.86397C41.6971 1.28481 40.4122 0 38.8331 0H11.1671C9.58784 0 8.30326 1.28481 8.30326 2.86386V4.14H4.22313C2.98017 4.14 1.80507 4.6833 0.999465 5.63066C0.202074 6.56821 -0.142566 7.79965 0.0541592 9.00908C1.12617 15.6008 5.27449 21.4242 11.162 24.6184C11.6999 25.9118 12.3091 27.1368 12.9876 28.2782C15.1546 31.9247 17.8487 34.4449 20.814 35.6636C21.1145 38.7022 19.0927 41.5808 16.0477 42.2667C16.0412 42.2682 16.0367 42.2705 16.0303 42.272C15.436 42.414 14.9936 42.9472 14.9936 43.585V49.7847H12.4863C10.2508 49.7847 8.43213 51.6034 8.43213 53.8388V57.0387C8.43213 57.7851 9.03713 58.3901 9.78354 58.3901H40.3457C41.0921 58.3901 41.6971 57.7851 41.6971 57.0387V53.8388C41.6971 51.6034 39.8784 49.7847 37.643 49.7847H35.1354V43.5851C35.1354 42.9461 34.6914 42.412 34.0955 42.2713C34.0899 42.2699 34.0846 42.2681 34.079 42.2667C31.011 41.5762 28.9854 38.6687 29.3175 35.6073C32.231 34.3688 34.8779 31.8711 37.013 28.2784C37.6914 27.137 38.3005 25.9118 38.8386 24.6182C44.7257 21.4238 48.8738 15.6006 49.9458 9.00908C50.1426 7.79965 49.7979 6.56833 49.0004 5.63078ZM2.72186 8.57515C2.65161 8.14327 2.77101 7.71937 3.05818 7.38157C3.34956 7.03898 3.77403 6.8426 4.22301 6.8426H8.30314V9.32897C8.30314 13.2277 8.80071 17.0041 9.74374 20.4577C6.03779 17.5291 3.48618 13.275 2.72186 8.57515ZM37.643 52.4877C38.3881 52.4877 38.9944 53.0939 38.9944 53.8391V55.6875H11.1348V53.8391C11.1348 53.0939 11.7411 52.4877 12.4863 52.4877H37.643ZM32.4325 44.9365V49.7848H17.6967V44.9365H32.4325ZM21.2408 42.2338C21.5748 41.8661 21.8802 41.4675 22.1534 41.0409C23.054 39.6337 23.5267 38.0351 23.5479 36.4023C24.0279 36.4676 24.5124 36.5027 25.0009 36.5027C25.5325 36.5027 26.0591 36.4618 26.5806 36.3845C26.6114 38.5786 27.4654 40.6554 28.9013 42.2337H21.2408V42.2338ZM38.9941 9.32909C38.9941 15.9868 37.4653 22.2261 34.6894 26.8974C32.0445 31.3485 28.6035 33.7998 25.0007 33.7998C21.3973 33.7998 17.9561 31.3486 15.3109 26.8976C12.5348 22.2263 11.006 15.9869 11.006 9.32932V2.86386C11.006 2.7749 11.0783 2.70271 11.167 2.70271H38.8329C38.9218 2.70271 38.9941 2.77502 38.9941 2.86386V9.32909ZM47.2781 8.57515C46.5138 13.2746 43.9624 17.5287 40.2566 20.4574C41.1995 17.0039 41.6971 13.2277 41.6971 9.32909V6.84272H45.7768C46.2259 6.84272 46.6503 7.03921 46.9416 7.38168C47.2288 7.71937 47.3483 8.14327 47.2781 8.57515Z" fill="#646464"/>
<path d="M33.2034 13.8743C33.0443 13.3853 32.6215 13.0288 32.1125 12.9546L28.0345 12.3621L26.2109 8.66683C25.9831 8.20564 25.5134 7.91357 24.999 7.91357C24.4846 7.91357 24.0148 8.20564 23.7872 8.66683L21.9635 12.3621L17.8856 12.9546C17.3765 13.0285 16.9536 13.3851 16.7946 13.8744C16.6358 14.3638 16.7683 14.9007 17.1367 15.2598L20.0875 18.1361L19.3908 22.1975C19.3038 22.7045 19.5122 23.2168 19.9284 23.5193C20.3445 23.8216 20.8963 23.8614 21.3516 23.6221L24.999 21.7047L28.6464 23.6221C28.8441 23.726 29.06 23.7772 29.275 23.7772C29.5551 23.7772 29.834 23.6902 30.0694 23.5192C30.4857 23.2167 30.694 22.7044 30.607 22.1974L29.9103 18.136L32.8612 15.2597C33.2298 14.9007 33.3623 14.3636 33.2034 13.8743ZM27.5153 16.6965C27.1968 17.0069 27.0514 17.4542 27.1266 17.8927L27.4804 19.9558L25.6278 18.9817C25.431 18.8782 25.2149 18.8266 24.9989 18.8266C24.7829 18.8266 24.5669 18.8784 24.3701 18.9817L22.5175 19.9558L22.8712 17.8927C22.9465 17.4543 22.8011 17.007 22.4826 16.6965L20.9839 15.2356L23.0552 14.9345C23.4953 14.8707 23.8758 14.5941 24.0727 14.1953L24.999 12.3184L25.9253 14.1953C26.1223 14.5941 26.5026 14.8706 26.9428 14.9345L29.014 15.2356L27.5153 16.6965Z" fill="#646464"/>
</svg>
