<svg width="75" height="70" viewBox="0 0 75 70" fill="none" xmlns="http://www.w3.org/2000/svg">
<path d="M45.8327 18.0737C46.1188 18.3598 46.4937 18.5027 46.8685 18.5027C47.2434 18.5027 47.6184 18.3598 47.9043 18.0737C48.4763 17.5017 48.4763 16.5741 47.9043 16.002L47.8845 15.9822C47.3125 15.4102 46.385 15.4102 45.8128 15.9822C45.2408 16.5542 45.2408 17.4817 45.8128 18.0539L45.8327 18.0737Z" fill="white"/>
<path d="M69.4652 31.9336L74.5709 26.8279C74.9898 26.4089 75.1151 25.7787 74.8883 25.2315C74.6615 24.6841 74.1275 24.3272 73.5349 24.3272H62.9513C61.5679 18.6641 58.6644 13.5039 54.5138 9.35316C48.4826 3.32168 40.4633 0 31.9336 0C23.4038 0 15.3845 3.32168 9.35316 9.35316C3.32168 15.3847 0 23.4038 0 31.9336C0 40.4633 3.32168 48.4826 9.35316 54.514C11.1467 56.3075 13.1171 57.8594 15.2234 59.1575L10.8102 66.9541C10.5536 67.4076 10.5571 67.9634 10.8196 68.4134C11.082 68.8637 11.5638 69.1405 12.0849 69.1405H19.6289C20.1567 69.1405 20.6437 68.8567 20.9037 68.3973L24.0241 62.8843C26.5781 63.5322 29.23 63.8671 31.9336 63.8671C34.6371 63.8671 37.289 63.5322 39.843 62.8843L42.9634 68.3973C43.2234 68.8567 43.7104 69.1405 44.2382 69.1405H51.7822C52.3034 69.1405 52.7851 68.8637 53.0476 68.4135C53.3101 67.9634 53.3137 67.4076 53.057 66.9543L48.6439 59.1576C50.7502 57.8594 52.7205 56.3077 54.5141 54.5141C58.6631 50.3651 61.568 45.2027 62.9513 39.54H73.5351C74.1275 39.54 74.6617 39.1831 74.8884 38.6358C75.1152 38.0885 74.9898 37.4584 74.571 37.0394L69.4652 31.9336ZM66.7867 30.4687H56.5637L59.7755 27.2569H69.9986L66.7867 30.4687ZM18.7747 66.2109H14.5973L17.7857 60.5781C18.8799 61.1198 20.0033 61.599 21.1526 62.01L18.7747 66.2109ZM49.2698 66.2109H45.0924L42.7145 62.01C43.8638 61.599 44.9872 61.1198 46.0814 60.5781L49.2698 66.2109ZM52.4424 52.4424C50.5073 54.3774 48.3461 56.0037 46.0196 57.3001C45.9909 57.314 45.9619 57.3272 45.9336 57.3432C45.9159 57.3533 45.8998 57.3648 45.8827 57.3755C44.098 58.3573 42.2175 59.1455 40.2662 59.7276C40.1894 59.7429 40.1135 59.7654 40.0387 59.7935C37.438 60.5462 34.716 60.9374 31.9336 60.9374C29.1511 60.9374 26.4291 60.5462 23.8284 59.7937C23.7534 59.7656 23.6776 59.743 23.6007 59.7278C21.6495 59.1456 19.7689 58.3574 17.9845 57.3757C17.9673 57.365 17.9512 57.3534 17.9335 57.3433C17.9052 57.3273 17.8763 57.3141 17.8476 57.3002C15.5212 56.0038 13.3599 54.3776 11.4249 52.4424C5.94667 46.9643 2.92968 39.6808 2.92968 31.9336C2.92968 24.1863 5.94667 16.9028 11.4247 11.4247C16.9028 5.94667 24.1863 2.92968 31.9336 2.92968C39.6808 2.92968 46.9643 5.94667 52.4424 11.4247C56.0419 15.0243 58.6092 19.4585 59.9274 24.3272H59.1689C58.7805 24.3272 58.4078 24.4816 58.1331 24.7563L54.2453 28.6441C53.853 25.9809 52.992 23.3913 51.6918 21.0363C51.3008 20.3281 50.4096 20.0711 49.7014 20.4619C48.9931 20.8529 48.736 21.7441 49.127 22.4524C50.5176 24.971 51.2944 27.7094 51.4932 30.4689H45.0344C44.7083 27.5017 43.3971 24.7529 41.2558 22.6116C38.7657 20.1214 35.455 18.75 31.9336 18.75C28.4121 18.75 25.1014 20.1214 22.6114 22.6113C20.1214 25.1015 18.75 28.4121 18.75 31.9336C18.75 35.455 20.1214 38.7657 22.6113 41.2557C25.1014 43.7458 28.4121 45.1171 31.9336 45.1171C35.455 45.1171 38.7657 43.7458 41.2557 41.2558C43.397 39.1145 44.7082 36.3657 45.0342 33.3984H51.4867C51.1373 37.9775 49.2051 42.4212 45.8132 45.8132C42.1059 49.5207 37.1765 51.5624 31.9336 51.5624C26.6906 51.5624 21.7613 49.5207 18.0539 45.8132C14.3464 42.1059 12.3047 37.1767 12.3047 31.9336C12.3047 26.6904 14.3464 21.7613 18.0539 18.0539C24.2036 11.9042 33.81 10.5416 41.4149 14.7403C42.123 15.1311 43.0142 14.8742 43.4053 14.1659C43.7963 13.4577 43.5392 12.5666 42.831 12.1755C38.6349 9.85883 33.6942 8.93554 28.9192 9.57626C23.9849 10.2381 19.5113 12.4532 15.9823 15.9823C11.7215 20.2431 9.37499 25.9079 9.37499 31.9336C9.37499 37.9592 11.7215 43.6242 15.9822 47.8848C20.2429 52.1456 25.9079 54.4921 31.9336 54.4921C37.9592 54.4921 43.6242 52.1456 47.8848 47.885C51.347 44.4229 53.5434 40.0517 54.2504 35.2284L58.133 39.111C58.4076 39.3856 58.7803 39.54 59.1688 39.54H59.927C58.6088 44.4084 56.0405 48.8443 52.4424 52.4424ZM36.7177 29.1715C36.3133 28.4707 35.4174 28.2307 34.7168 28.6353L31.2011 30.665C30.7479 30.9266 30.4687 31.4102 30.4687 31.9336C30.4687 32.4569 30.7479 32.9405 31.2011 33.2021L34.7168 35.2318C34.9475 35.3649 35.1993 35.4282 35.4479 35.4282C35.9541 35.4282 36.4464 35.1656 36.7177 34.6957C36.9555 34.284 36.9691 33.8055 36.799 33.3984H42.083C41.7726 35.5815 40.7711 37.5972 39.1841 39.1841C37.2474 41.1209 34.6725 42.1875 31.9336 42.1875C29.1946 42.1875 26.6197 41.1209 24.6829 39.1841C22.7462 37.2474 21.6797 34.6725 21.6797 31.9336C21.6797 29.1946 22.7462 26.6197 24.683 24.6829C26.6197 22.7462 29.1946 21.6797 31.9336 21.6797C34.6725 21.6797 37.2474 22.7462 39.1842 24.683C40.7711 26.2699 41.7728 28.2857 42.0832 30.4687H36.7992C36.9691 30.0615 36.9555 29.5831 36.7177 29.1715ZM59.7755 36.6102L56.5637 33.3984H66.7867L69.9986 36.6102H59.7755Z" fill="white"/>
</svg>
