<svg width="75" height="53" viewBox="0 0 75 53" fill="none" xmlns="http://www.w3.org/2000/svg">
<path d="M45.254 26.7964C45.8253 26.2237 46.754 26.2237 47.3253 26.7964C47.8981 27.3677 47.8981 28.2965 47.3253 28.8677C46.754 29.4405 45.8253 29.4405 45.254 28.8677C44.6813 28.2965 44.6813 27.3677 45.254 26.7964Z" fill="white"/>
<path d="M37.499 29.2969C39.9222 29.2969 41.8936 31.2683 41.8936 33.6914C41.8936 36.1146 39.9222 38.0859 37.499 38.0859C35.0759 38.0859 33.1045 36.1146 33.1045 33.6914C33.1045 31.2683 35.0759 29.2969 37.499 29.2969ZM37.499 35.1563C38.3067 35.1563 38.9639 34.4991 38.9639 33.6914C38.9639 32.8837 38.3067 32.2266 37.499 32.2266C36.6913 32.2266 36.0342 32.8837 36.0342 33.6914C36.0342 34.4991 36.6913 35.1563 37.499 35.1563Z" fill="white"/>
<path d="M37.5 21.9727C39.1374 21.9727 40.7207 22.3036 42.2057 22.9563C42.9463 23.282 43.2828 24.1462 42.9573 24.8868C42.6318 25.6275 41.7674 25.9638 41.0268 25.6385C39.9157 25.1501 38.729 24.9024 37.5 24.9024C32.6537 24.9024 28.7109 28.8452 28.7109 33.6914C28.7109 38.5377 32.6537 42.4805 37.5 42.4805C42.3463 42.4805 46.2891 38.5377 46.2891 33.6914C46.2891 33.6413 46.2892 33.5924 46.288 33.5423C46.2693 32.7336 46.9097 32.0627 47.7185 32.0439C48.5285 32.0237 49.1981 32.6655 49.2168 33.4744C49.2186 33.5473 49.2188 33.6185 49.2188 33.6914C49.2188 40.1532 43.9617 45.4102 37.5 45.4102C31.0383 45.4102 25.7812 40.1532 25.7812 33.6914C25.7812 27.2297 31.0383 21.9727 37.5 21.9727Z" fill="white"/>
<path d="M37.499 0C38.3081 0 38.9639 0.655811 38.9639 1.46484V10.2539C38.9639 11.0629 38.3081 11.7188 37.499 11.7188C36.69 11.7188 36.0342 11.0629 36.0342 10.2539V1.46484C36.0342 0.655811 36.69 0 37.499 0Z" fill="white"/>
<path d="M53.8645 10.86L60.0784 4.64618C60.6504 4.07416 61.5779 4.07416 62.1501 4.64618C62.7221 5.2182 62.7221 6.14574 62.1501 6.71791L55.9362 12.9318C55.3642 13.5038 54.4365 13.5039 53.8645 12.9318C53.2925 12.3598 53.2925 11.4322 53.8645 10.86Z" fill="white"/>
<path d="M12.8489 4.64618C13.4209 4.07416 14.3484 4.07416 14.9206 4.64618L21.1345 10.86C21.7065 11.4321 21.7065 12.3596 21.1345 12.9318C20.5626 13.5038 19.6349 13.5039 19.0627 12.9318L12.8489 6.71791C12.2768 6.14589 12.2768 5.21835 12.8489 4.64618Z" fill="white"/>
<path d="M0.366928 33.9419C9.67235 23.4069 23.4893 14.6485 37.5 14.6485C51.5126 14.6485 65.3294 23.4091 74.6331 33.9419C75.1686 34.5484 75.1112 35.474 74.5049 36.0096C73.8985 36.5451 72.9727 36.4877 72.4373 35.8814C72.1251 35.5279 71.8053 35.1758 71.4815 34.8258C64.2429 45.7629 51.1211 52.7344 37.5 52.7344C23.8788 52.7344 10.7571 45.7629 3.51854 34.8258C3.19466 35.1759 2.87489 35.5281 2.56273 35.8814C2.02894 36.4858 1.1033 36.5467 0.495102 36.0096C-0.111198 35.474 -0.168617 34.5482 0.366928 33.9419ZM37.5 49.8047C50.3782 49.8047 62.7643 43.1135 69.388 32.669C64.1691 27.5551 52.1102 17.5782 37.5 17.5782C22.8896 17.5782 10.8309 27.5551 5.61195 32.6688C12.2357 43.1135 24.6218 49.8047 37.5 49.8047Z" fill="white"/>
</svg>
