<svg width="246" height="39" viewBox="0 0 246 39" fill="none" xmlns="http://www.w3.org/2000/svg">
<rect x="0.391876" y="19" width="100.088" height="2" fill="#BD2AA7"/>
<rect x="145.52" y="19" width="100.088" height="2" fill="#BD2AA7"/>
<g clip-path="url(#clip0)">
<path d="M121.146 4.58097C121.332 3.6524 121.58 2.72382 122.137 1.91906C122.943 0.742872 123.996 1.51172e-05 125.483 -0.0618896C126.289 -0.0618896 126.908 0.309539 127.466 0.866682C127.776 1.17621 127.776 1.54763 127.652 1.91906C127.528 2.29049 127.218 2.53811 126.784 2.60001C126.227 2.66192 126.165 2.84763 126.475 3.28097C126.722 3.6524 127.032 3.96192 127.342 4.27144C127.404 4.33335 127.59 4.39525 127.652 4.45716C128.643 4.82859 129.387 5.44763 129.572 6.50002C129.634 6.93335 129.572 7.36668 129.511 7.80002C129.511 7.98573 129.449 8.04763 129.572 8.17144C130.44 9.16192 130.75 10.2762 130.378 11.5762C130.378 11.6381 130.44 11.8238 130.502 11.8857C131.245 12.8143 131.555 13.8667 131.307 15.0429C131.121 15.9095 130.626 16.5905 129.882 17.0857C129.758 17.2095 129.634 17.3333 129.572 17.5191C128.023 23.5857 126.475 29.7143 124.926 35.781C124.802 36.2762 124.616 36.6476 124.12 36.8333C123.5 37.081 122.757 36.7095 122.571 35.9667C122.261 34.7286 121.951 33.4905 121.642 32.2524C120.402 27.3 119.101 22.3476 117.862 17.3953C117.8 17.2095 117.676 17.0238 117.552 16.9C115.756 15.4762 115.57 12.8143 117.181 11.2048C117.366 11.0191 117.428 10.8953 117.305 10.5857C116.809 9.40954 116.809 8.23335 117.614 7.18097C117.8 6.93335 118.11 6.74763 118.358 6.50002C118.482 6.37621 118.606 6.2524 118.606 6.12859C118.854 5.07621 119.535 4.45716 120.588 4.39525C120.712 4.64287 120.898 4.64287 121.146 4.58097ZM124.987 12.5048C124.926 12.5048 124.802 12.5667 124.74 12.5667C124.678 12.5667 124.616 12.5667 124.492 12.5667C123.438 12.6286 122.447 12.2572 121.58 11.6381C120.217 10.7714 118.42 11.081 117.552 12.4429C116.685 13.8667 117.119 15.6619 118.544 16.5286C118.668 16.5905 118.854 16.6524 119.039 16.6524C122.199 16.6524 125.297 16.6524 128.457 16.6524C128.581 16.6524 128.643 16.6524 128.767 16.6524C129.82 16.2191 130.564 15.4143 130.378 14.1143C130.254 13.1857 129.82 12.5667 129.015 12.0714C129.139 11.9476 129.201 11.8238 129.325 11.7C129.387 11.5762 129.511 11.3905 129.511 11.2048C129.882 9.84287 128.829 8.35716 127.342 8.17144C126.66 8.10954 126.103 8.29525 125.483 8.41906C125.297 8.48097 125.049 8.48097 124.864 8.54287C125.111 8.35716 125.359 8.29525 125.607 8.17144C126.413 7.73811 127.156 7.73811 128.023 8.04764C128.085 8.10954 128.271 8.04763 128.333 7.98573C128.891 7.36668 128.767 6.43811 128.147 5.88097C127.404 5.26192 126.536 5.26192 125.669 5.63335C124.554 6.19049 123.5 6.3143 122.323 5.81906C121.766 5.63335 121.208 5.63335 120.712 5.69525C119.907 5.75716 119.535 6.12859 119.535 6.80954C119.535 7.11906 119.411 7.30478 119.163 7.42859C117.862 8.04764 117.552 9.78097 118.544 10.8333C119.721 10.3381 120.712 10.5857 121.704 11.3286C122.633 12.0714 123.686 12.6905 124.987 12.5048ZM123.624 36.0286C123.686 36.0286 123.748 36.0286 123.81 36.0286C125.421 29.7762 127.032 23.5238 128.581 17.2095C125.297 17.2095 122.075 17.2095 118.792 17.2095C120.402 23.4619 122.013 29.7143 123.624 36.0286ZM126.598 1.54763C126.289 1.17621 125.855 0.990491 125.297 1.0524C124.802 1.1143 124.306 1.30002 123.934 1.60954C122.695 2.53811 122.261 3.90002 122.137 5.38573C122.137 5.44763 122.199 5.57144 122.261 5.57144C123.067 5.88097 123.81 6.00478 124.678 5.69525C125.297 5.44763 125.855 5.26192 126.475 5.0143C126.413 4.9524 126.351 4.89049 126.289 4.76668C125.979 4.39525 125.669 4.08573 125.421 3.7143C125.049 3.15716 125.111 2.47621 125.607 2.04287C125.855 1.79525 126.227 1.73335 126.598 1.54763Z" fill="#BD2AA7"/>
</g>
<g clip-path="url(#clip1)">
<path d="M135.298 19.4675C135.185 18.9094 135.035 18.3513 134.698 17.8676C134.211 17.1608 133.574 16.7143 132.674 16.6771C132.187 16.6771 131.813 16.9003 131.475 17.2352C131.288 17.4212 131.288 17.6444 131.363 17.8676C131.438 18.0909 131.625 18.2397 131.887 18.2769C132.225 18.3141 132.262 18.4257 132.075 18.6862C131.925 18.9094 131.738 19.0954 131.55 19.2814C131.513 19.3186 131.4 19.3558 131.363 19.393C130.763 19.6163 130.314 19.9883 130.201 20.6208C130.164 20.8812 130.201 21.1417 130.239 21.4021C130.239 21.5137 130.276 21.5509 130.201 21.6253C129.676 22.2206 129.489 22.8903 129.714 23.6716C129.714 23.7088 129.676 23.8204 129.639 23.8576C129.189 24.4157 129.002 25.0482 129.152 25.7551C129.264 26.2759 129.564 26.6852 130.014 26.9828C130.089 27.0573 130.164 27.1317 130.201 27.2433C131.138 30.8894 132.075 34.5726 133.012 38.2187C133.087 38.5163 133.199 38.7396 133.499 38.8512C133.874 39 134.323 38.7768 134.436 38.3303C134.623 37.5862 134.811 36.8421 134.998 36.098C135.747 33.1216 136.534 30.1453 137.284 27.1689C137.321 27.0573 137.396 26.9456 137.471 26.8712C138.558 26.0155 138.671 24.4157 137.696 23.4484C137.584 23.3368 137.546 23.2624 137.621 23.0763C137.921 22.3694 137.921 21.6625 137.434 21.0301C137.321 20.8812 137.134 20.7696 136.984 20.6208C136.909 20.5464 136.834 20.472 136.834 20.3976C136.684 19.7651 136.272 19.393 135.635 19.3558C135.56 19.5047 135.448 19.5047 135.298 19.4675ZM132.974 24.2297C133.012 24.2297 133.087 24.2669 133.124 24.2669C133.162 24.2669 133.199 24.2669 133.274 24.2669C133.911 24.3041 134.511 24.0809 135.035 23.7088C135.86 23.1879 136.947 23.374 137.471 24.1925C137.996 25.0482 137.734 26.1271 136.872 26.648C136.797 26.6852 136.684 26.7224 136.572 26.7224C134.661 26.7224 132.787 26.7224 130.876 26.7224C130.801 26.7224 130.763 26.7224 130.688 26.7224C130.051 26.462 129.601 25.9783 129.714 25.197C129.789 24.6389 130.051 24.2669 130.538 23.9692C130.463 23.8948 130.426 23.8204 130.351 23.746C130.314 23.6716 130.239 23.56 130.239 23.4484C130.014 22.6299 130.651 21.737 131.55 21.6253C131.962 21.5881 132.3 21.6998 132.674 21.7742C132.787 21.8114 132.937 21.8114 133.049 21.8486C132.899 21.737 132.749 21.6998 132.6 21.6253C132.112 21.3649 131.663 21.3649 131.138 21.5509C131.1 21.5881 130.988 21.5509 130.951 21.5137C130.613 21.1417 130.688 20.5836 131.063 20.2488C131.513 19.8767 132.037 19.8767 132.562 20.0999C133.237 20.4348 133.874 20.5092 134.586 20.2116C134.923 20.0999 135.26 20.0999 135.56 20.1371C136.047 20.1744 136.272 20.3976 136.272 20.8068C136.272 20.9929 136.347 21.1045 136.497 21.1789C137.284 21.5509 137.471 22.5927 136.872 23.2252C136.16 22.9275 135.56 23.0763 134.96 23.5228C134.398 23.9692 133.761 24.3413 132.974 24.2297ZM133.799 38.3675C133.761 38.3675 133.724 38.3675 133.686 38.3675C132.712 34.6098 131.738 30.8521 130.801 27.0573C132.787 27.0573 134.736 27.0573 136.722 27.0573C135.747 30.8149 134.773 34.5726 133.799 38.3675ZM132 17.6444C132.187 17.4212 132.45 17.3096 132.787 17.3468C133.087 17.384 133.386 17.4956 133.611 17.6816C134.361 18.2397 134.623 19.0582 134.698 19.9511C134.698 19.9883 134.661 20.0627 134.623 20.0627C134.136 20.2488 133.686 20.3232 133.162 20.1371C132.787 19.9883 132.45 19.8767 132.075 19.7279C132.112 19.6907 132.15 19.6535 132.187 19.5791C132.375 19.3558 132.562 19.1698 132.712 18.9466C132.937 18.6117 132.899 18.2025 132.6 17.9421C132.45 17.7932 132.225 17.756 132 17.6444Z" fill="#BD2AA7"/>
</g>
<g clip-path="url(#clip2)">
<path d="M111.908 19.4675C112.028 18.9094 112.188 18.3513 112.548 17.8676C113.067 17.1608 113.747 16.7143 114.706 16.6771C115.226 16.6771 115.626 16.9003 115.985 17.2352C116.185 17.4212 116.185 17.6444 116.105 17.8676C116.025 18.0909 115.825 18.2397 115.546 18.2769C115.186 18.3141 115.146 18.4257 115.346 18.6862C115.506 18.9094 115.706 19.0954 115.905 19.2814C115.945 19.3186 116.065 19.3558 116.105 19.393C116.745 19.6163 117.225 19.9883 117.344 20.6208C117.384 20.8812 117.344 21.1417 117.305 21.4021C117.305 21.5137 117.265 21.5509 117.344 21.6253C117.904 22.2206 118.104 22.8903 117.864 23.6716C117.864 23.7088 117.904 23.8204 117.944 23.8576C118.424 24.4157 118.624 25.0482 118.464 25.7551C118.344 26.2759 118.024 26.6852 117.544 26.9828C117.464 27.0573 117.384 27.1317 117.344 27.2433C116.345 30.8894 115.346 34.5726 114.346 38.2187C114.267 38.5163 114.147 38.7396 113.827 38.8512C113.427 39 112.947 38.7768 112.827 38.3303C112.628 37.5862 112.428 36.8421 112.228 36.098C111.428 33.1216 110.589 30.1453 109.789 27.1689C109.749 27.0573 109.67 26.9456 109.59 26.8712C108.43 26.0155 108.31 24.4157 109.35 23.4484C109.47 23.3368 109.51 23.2624 109.43 23.0763C109.11 22.3694 109.11 21.6625 109.63 21.0301C109.749 20.8812 109.949 20.7696 110.109 20.6208C110.189 20.5464 110.269 20.472 110.269 20.3976C110.429 19.7651 110.869 19.393 111.548 19.3558C111.628 19.5047 111.748 19.5047 111.908 19.4675ZM114.386 24.2297C114.346 24.2297 114.267 24.2669 114.227 24.2669C114.187 24.2669 114.147 24.2669 114.067 24.2669C113.387 24.3041 112.748 24.0809 112.188 23.7088C111.308 23.1879 110.149 23.374 109.59 24.1925C109.03 25.0482 109.31 26.1271 110.229 26.648C110.309 26.6852 110.429 26.7224 110.549 26.7224C112.588 26.7224 114.586 26.7224 116.625 26.7224C116.705 26.7224 116.745 26.7224 116.825 26.7224C117.504 26.462 117.984 25.9783 117.864 25.197C117.784 24.6389 117.504 24.2669 116.985 23.9692C117.065 23.8948 117.105 23.8204 117.185 23.746C117.225 23.6716 117.305 23.56 117.305 23.4484C117.544 22.6299 116.865 21.737 115.905 21.6253C115.466 21.5881 115.106 21.6998 114.706 21.7742C114.586 21.8114 114.426 21.8114 114.306 21.8486C114.466 21.737 114.626 21.6998 114.786 21.6253C115.306 21.3649 115.786 21.3649 116.345 21.5509C116.385 21.5881 116.505 21.5509 116.545 21.5137C116.905 21.1417 116.825 20.5836 116.425 20.2488C115.945 19.8767 115.386 19.8767 114.826 20.0999C114.107 20.4348 113.427 20.5092 112.668 20.2116C112.308 20.0999 111.948 20.0999 111.628 20.1371C111.109 20.1744 110.869 20.3976 110.869 20.8068C110.869 20.9929 110.789 21.1045 110.629 21.1789C109.789 21.5509 109.59 22.5927 110.229 23.2252C110.989 22.9275 111.628 23.0763 112.268 23.5228C112.867 23.9692 113.547 24.3413 114.386 24.2297ZM113.507 38.3675C113.547 38.3675 113.587 38.3675 113.627 38.3675C114.666 34.6098 115.706 30.8521 116.705 27.0573C114.586 27.0573 112.508 27.0573 110.389 27.0573C111.428 30.8149 112.468 34.5726 113.507 38.3675ZM115.426 17.6444C115.226 17.4212 114.946 17.3096 114.586 17.3468C114.267 17.384 113.947 17.4956 113.707 17.6816C112.907 18.2397 112.628 19.0582 112.548 19.9511C112.548 19.9883 112.588 20.0627 112.628 20.0627C113.147 20.2488 113.627 20.3232 114.187 20.1371C114.586 19.9883 114.946 19.8767 115.346 19.7279C115.306 19.6907 115.266 19.6535 115.226 19.5791C115.026 19.3558 114.826 19.1698 114.666 18.9466C114.426 18.6117 114.466 18.2025 114.786 17.9421C114.946 17.7932 115.186 17.756 115.426 17.6444Z" fill="#BD2AA7"/>
</g>
<defs>
<clipPath id="clip0">
<rect width="15.3659" height="37.081" fill="white" transform="translate(116.065)"/>
</clipPath>
<clipPath id="clip1">
<rect width="9.29391" height="22.2857" fill="white" transform="matrix(-1 0 0 1 138.371 16.7143)"/>
</clipPath>
<clipPath id="clip2">
<rect width="9.9135" height="22.2857" fill="white" transform="translate(108.63 16.7143)"/>
</clipPath>
</defs>
</svg>
