<svg width="227" height="29" viewBox="0 0 227 29" fill="none" xmlns="http://www.w3.org/2000/svg">
<g clip-path="url(#clip0)">
<path d="M72.1976 20.7605L73.1732 18.36L73.6285 17.2571L74.0838 18.36L75.0595 20.7605L75.3847 21.539L74.7343 21.6688C74.4741 21.7336 74.1489 21.7336 73.7586 21.7336C73.3033 21.7336 72.9131 21.7336 72.5878 21.6688L71.9374 21.6039L72.1976 20.7605ZM67.9698 26.9238L69.0105 26.8589L69.9861 26.9238L70.3764 25.5614C70.5715 24.9775 70.7666 24.3936 70.9618 23.8746L71.287 23.0312L72.2626 22.9014C72.5878 22.9014 72.9781 22.8365 73.5635 22.8365C74.0838 22.8365 74.5391 22.8365 74.8643 22.9014L75.905 23.0312L76.2302 23.8746L76.8156 25.5614L77.2059 26.8589L78.832 26.794L80.7182 26.8589L80.0027 25.3667C78.897 22.9663 77.7262 20.2415 76.5555 17.1274L75.6449 14.662L75.1896 13.3645L74.344 13.4294L73.6285 13.3645L73.1732 14.662L72.1976 17.1922C70.9618 20.3063 69.791 23.0312 68.6202 25.4316L67.9698 26.9238Z" fill="black"/>
<path d="M84.6208 20.8253C84.6859 20.3712 84.7509 19.9819 84.881 19.6575C85.1412 19.0087 85.6615 18.6195 86.377 18.6195C87.2225 18.6195 87.7429 19.0736 88.0681 20.0468C88.2632 20.6307 88.3283 21.4092 88.3283 22.3823C88.3283 22.9014 88.2632 23.4204 88.1982 23.8745C88.0031 25.4316 87.3526 26.2101 86.3119 26.2101C85.5965 26.2101 85.1412 25.8857 84.8159 25.1721C84.6859 24.8477 84.5558 24.4584 84.5558 24.0043C84.4907 23.5501 84.4907 23.0311 84.4907 22.577C84.5558 21.9931 84.5558 21.4092 84.6208 20.8253ZM84.6859 12.3264L83.32 12.3913L81.889 12.3264L81.954 13.1049L82.0191 14.8566V16.8678L82.0841 19.917V23.1609C82.0841 24.134 82.0191 24.9774 82.0191 25.6262L81.954 26.9886H82.4093L83.45 26.275L84.1005 25.8208L84.4907 26.275C85.1412 26.8589 85.9867 27.1832 87.0274 27.1832C87.873 27.1832 88.7185 26.9237 89.3689 26.4047C90.0844 25.8857 90.6048 25.2369 90.8649 24.4584C91.1902 23.6799 91.3202 22.9014 91.3202 21.9931C91.3202 19.6575 90.5397 18.2302 88.9136 17.5814C88.4583 17.3868 88.003 17.3219 87.4827 17.3219C87.0274 17.3219 86.5721 17.3868 86.1168 17.5814C85.7265 17.7112 85.4013 17.9058 85.1412 18.1653L84.6859 18.6195V16.9327V14.8566C84.6859 14.143 84.6859 13.624 84.7509 13.1698L84.6859 12.3264Z" fill="black"/>
<path d="M95.2228 21.1498C95.2228 20.6308 95.3529 20.1766 95.548 19.7225C95.8732 19.0089 96.3285 18.6196 97.044 18.6196C97.6944 18.6196 98.1497 18.8791 98.54 19.463C98.7351 19.7874 98.8001 20.1766 98.9302 20.5659C98.9953 21.02 99.0603 21.5391 99.0603 22.0581C99.0603 22.642 98.9953 23.2907 98.9302 23.8746C98.6701 25.237 98.0847 25.8858 97.1741 25.8858C96.4586 25.8858 96.0033 25.5614 95.6781 24.9127C95.3529 24.2639 95.2228 23.2907 95.2228 21.9283V21.1498ZM98.9302 12.3265L98.9953 13.2348C98.9953 13.6241 99.0603 14.2728 99.0603 15.1811V17.5167V18.5547L98.7351 18.1655C98.4749 17.906 98.1497 17.6464 97.7595 17.5167C97.3042 17.3869 96.9139 17.2572 96.4586 17.2572C95.8732 17.2572 95.3529 17.3869 94.8976 17.5816C93.2715 18.2952 92.4259 19.8523 92.4259 22.3176C92.4259 23.7449 92.7511 24.8478 93.3365 25.6263C94.052 26.5995 95.0927 27.0536 96.3935 27.0536C96.9789 27.0536 97.5643 26.9238 98.0196 26.6643C98.4099 26.4697 98.8001 26.0156 99.1904 25.4317L99.1253 26.1453L99.0603 26.859L100.426 26.7941L101.792 26.859L101.727 26.0804C101.662 25.6912 101.662 25.0424 101.662 24.0693V21.8634V17.4518V15.1162L101.727 13.2348L101.792 12.1968L100.491 12.2617L98.9302 12.3265Z" fill="black"/>
<path d="M106.54 18.2951C106.475 18.7493 106.475 19.2683 106.475 19.7873V21.6687L106.54 23.6799C106.605 24.9126 107.126 25.4965 108.166 25.4965C108.557 25.4965 108.947 25.3667 109.272 25.1072C109.597 24.8477 109.792 24.5233 109.857 24.1341C109.923 23.8745 109.988 23.4853 109.988 23.096V21.6687V19.7873C109.988 19.0736 109.988 18.6195 109.923 18.2951L109.857 17.5166L111.288 17.5815L112.719 17.5166L112.654 18.2951C112.589 18.6844 112.589 19.2034 112.589 19.7873V21.7336V23.7448V25.237C112.589 25.6911 112.589 26.0155 112.654 26.275L112.719 26.9886L111.353 26.9238L109.923 26.9886L110.053 26.275C110.053 26.0804 110.053 25.756 110.118 25.3667C109.467 26.5994 108.492 27.1833 107.191 27.1833C106.605 27.1833 105.955 27.0535 105.37 26.7291C104.719 26.4047 104.329 25.9506 104.199 25.3667C104.069 24.9775 104.004 24.4584 104.004 23.9394V21.7985V19.8522C104.004 19.2034 104.004 18.6844 103.939 18.36L103.874 17.5815L105.37 17.6464L106.735 17.5815L106.54 18.2951Z" fill="black"/>
<path d="M114.996 25.6911L115.061 23.0311L115.126 19.3331V16.3488C115.126 15.1161 115.061 14.143 115.061 13.4942L114.996 12.3264L116.362 12.3913L117.793 12.3264L117.728 13.4942C117.663 14.2727 117.663 15.2459 117.663 16.3488V19.3331V22.9662L117.728 25.7559L117.793 26.9886L116.362 26.9237L114.931 26.9886L114.996 25.6911Z" fill="black"/>
<path d="M126.118 26.859L125.273 26.9239L125.533 25.6913C125.793 24.264 125.988 23.0962 126.118 22.123L126.443 19.7226L127.029 15.2461L127.224 13.4944L128.069 13.5593L128.85 13.4944L129.761 15.5056L131.127 18.425C131.647 19.5279 132.167 20.566 132.688 21.4742L133.403 22.8367L134.118 21.5391L135.68 18.425C136.395 16.9329 136.98 15.7651 137.371 14.9217L137.956 13.5593L138.737 13.6241L139.517 13.5593L139.647 14.9217C139.777 16.349 139.972 18.0358 140.233 19.9172C140.493 21.9933 140.753 23.8098 141.078 25.3669L141.403 27.1185L139.842 27.0537L138.151 27.1185L138.086 25.8859C137.956 24.0045 137.891 22.9015 137.826 22.5123L137.501 19.8523L137.306 18.2304L136.525 19.8523L135.354 22.1879C134.639 23.6152 134.053 24.783 133.728 25.6264L133.143 27.1185L132.753 27.0537L132.362 27.1185L131.972 26.2103C131.777 25.7561 131.517 25.1722 131.127 24.4586L129.891 21.9284L128.915 19.8523L128.135 18.2953L127.939 19.8523L127.679 22.5772C127.549 23.9396 127.484 25.0425 127.419 25.8859L127.354 27.0537L126.118 26.859Z" fill="black"/>
<path d="M147.582 18.2303C148.818 18.2303 149.469 19.5278 149.469 22.058C149.469 24.9126 148.753 26.275 147.387 26.275C146.086 26.275 145.436 24.9775 145.371 22.3824C145.436 19.6576 146.151 18.2303 147.582 18.2303ZM142.639 22.5122C142.639 24.0043 143.094 25.1073 143.94 25.9507C144.786 26.7292 145.956 27.1833 147.387 27.1833C147.973 27.1833 148.493 27.1184 149.013 26.9238C151.16 26.275 152.266 24.6531 152.266 22.1229C152.266 20.6307 151.81 19.463 150.965 18.6196C150.119 17.7762 148.948 17.3869 147.452 17.322C146.282 17.322 145.306 17.6464 144.46 18.2303C143.615 18.8791 143.029 19.7225 142.769 20.8254C142.704 21.4093 142.574 21.9932 142.639 22.5122Z" fill="black"/>
<path d="M155.453 17.6465L156.753 17.5816C156.688 17.906 156.623 18.1655 156.623 18.2952V18.8791L157.274 18.2952C157.924 17.7113 158.705 17.387 159.68 17.387C160.526 17.387 161.306 17.6465 161.827 18.2304C162.152 18.5547 162.347 18.8791 162.477 19.2035C162.672 19.6577 162.737 20.1767 162.737 20.8254V22.8366V24.5234C162.737 25.302 162.737 25.821 162.802 26.2102L162.867 27.0536L161.437 26.9888L160.071 27.0536L160.136 26.1454L160.201 24.4586V22.8366L160.136 21.1498C160.071 19.7874 159.55 19.1386 158.51 19.1386C157.404 19.1386 156.818 19.8523 156.753 21.1498L156.688 22.7718V24.3937C156.688 25.1073 156.688 25.7561 156.753 26.2102L156.818 27.0536L155.453 26.9888L153.957 27.0536L154.022 26.0805L154.087 24.2639V22.3825V20.1118C154.087 19.3981 154.022 18.8791 154.022 18.4899L153.957 17.6465H155.453Z" fill="black"/>
<path d="M167.29 21.2795V20.6956C167.29 20.3063 167.355 19.9819 167.486 19.5927C167.746 18.6844 168.201 18.2302 168.917 18.2302C169.827 18.2302 170.347 19.0736 170.347 20.7604V21.2795H167.29ZM172.299 26.4696L172.559 25.8857L172.819 25.3018L172.559 25.1072L171.974 25.3667C171.323 25.6262 170.673 25.8208 170.087 25.756C169.242 25.756 168.591 25.4965 168.071 24.9126C167.616 24.3935 167.355 23.7448 167.225 22.9014L167.16 22.2526H170.412L171.453 22.3175L172.494 22.3824L173.014 22.4472V21.4741C173.014 20.1765 172.624 19.2034 171.908 18.4249C171.193 17.6463 170.152 17.2571 168.851 17.2571C167.551 17.2571 166.51 17.6463 165.729 18.4249C165.274 18.879 164.949 19.3331 164.754 19.8522C164.494 20.5658 164.363 21.2795 164.363 22.1229C164.363 22.9014 164.494 23.6799 164.819 24.3935C165.469 26.2101 166.965 27.0535 169.307 27.0535C169.827 27.0535 170.347 26.9886 170.803 26.8589C171.128 26.794 171.388 26.7291 171.648 26.5994L172.299 26.4696Z" fill="black"/>
<path d="M174.77 26.275L174.835 24.6531V22.3175V19.982C174.835 19.3332 174.835 18.8142 174.77 18.4249L174.705 17.5166L176.266 17.5815L177.567 17.5166L177.437 18.2303V18.8791L177.892 18.36C178.543 17.6464 179.388 17.322 180.364 17.322C180.884 17.322 181.405 17.4518 181.795 17.6464C182.315 17.9059 182.641 18.36 182.901 19.0088C183.811 17.841 184.787 17.2571 185.958 17.322C186.933 17.322 187.649 17.6464 188.234 18.2303C188.69 18.7493 188.95 19.5278 188.95 20.5659V22.2527V23.5502V24.7829C188.95 25.3668 188.95 25.8858 189.015 26.3399L189.08 26.9887L187.714 26.9238L186.218 26.9887L186.283 26.4048C186.348 25.8858 186.348 25.3019 186.348 24.6531V23.3556V22.1878C186.348 21.1498 186.283 20.501 186.218 20.1766C186.088 19.3981 185.568 19.0088 184.787 19.0088C183.811 19.0088 183.226 19.5927 183.161 20.7605L183.096 22.1229V23.2907V24.6531C183.096 25.4316 183.096 26.0155 183.161 26.4697L183.226 27.0536L181.925 26.9887L180.429 27.0536L180.494 26.3399C180.494 26.0155 180.559 25.4316 180.559 24.6531V23.3556V21.9932C180.559 21.02 180.494 20.3712 180.364 20.1117C180.169 19.3981 179.649 19.0088 178.933 19.0088C178.023 19.0088 177.437 19.5927 177.372 20.7605L177.307 21.8634V23.2907V24.718L177.372 26.275L177.437 26.9887L176.071 26.9238L174.575 26.9887L174.77 26.275Z" fill="black"/>
<path d="M197.21 26.0805C197.275 25.4966 197.275 24.7829 197.275 23.9395V19.5928V16.2192C197.275 15.5055 197.275 14.9216 197.21 14.4026L197.145 13.4294L198.771 13.4943L200.267 13.4294L200.202 14.4026C200.137 14.9216 200.137 15.5704 200.137 16.2192V19.7225V25.6263H201.763C202.609 25.6263 203.259 25.6263 203.714 25.5614L204.755 25.4966L204.69 26.2751L204.755 27.0536L203.324 26.9239C202.739 26.9239 201.763 26.859 200.332 26.859C199.487 26.859 198.901 26.859 198.576 26.859L197.145 26.9887L197.21 26.0805Z" fill="black"/>
<path d="M205.471 18.1006L205.536 17.5167C205.861 17.5816 206.056 17.6465 206.251 17.6465H206.837V17.1275C206.837 16.8031 206.837 16.4138 206.772 15.9597L206.706 15.3109L208.072 14.7919L209.373 14.208L209.568 14.4026L209.503 15.246C209.438 16.0894 209.438 16.7382 209.438 17.1923V17.7114H210.284L211.26 17.5816L211.194 18.2304L211.26 18.944C210.804 18.8792 210.414 18.8143 210.219 18.8143H209.438V24.6532C209.438 25.2371 209.503 25.6912 209.568 25.821C209.764 26.2102 210.089 26.4049 210.544 26.4049C210.739 26.4049 210.869 26.4049 211.064 26.34L211.39 26.2751V26.9239L211.129 27.0536C210.934 27.1185 210.674 27.1834 210.349 27.2483C209.959 27.3132 209.633 27.378 209.373 27.378C208.983 27.378 208.658 27.3132 208.268 27.1834C207.617 26.9888 207.227 26.6644 207.097 26.2102C206.967 25.8859 206.902 25.302 206.902 24.6532V18.8792H206.186C205.991 18.8792 205.796 18.944 205.471 19.0089V18.1006Z" fill="black"/>
<path d="M215.162 21.1498C215.162 20.6308 215.292 20.1766 215.487 19.7225C215.812 19.0089 216.268 18.6196 216.983 18.6196C217.634 18.6196 218.089 18.8791 218.479 19.463C218.674 19.7874 218.804 20.1766 218.869 20.5659C218.935 21.02 219 21.5391 219 22.0581C219 22.642 218.935 23.2907 218.869 23.8746C218.609 25.237 218.024 25.8858 217.113 25.8858C216.398 25.8858 215.943 25.5614 215.617 24.9127C215.292 24.2639 215.162 23.2907 215.162 21.9283V21.1498ZM218.869 12.3265L218.935 13.2348C218.935 13.6241 219 14.2728 219 15.1811V17.5167V18.5547L218.674 18.1655C218.414 17.906 218.089 17.6464 217.699 17.5167C217.243 17.3869 216.853 17.2572 216.398 17.2572C215.812 17.2572 215.292 17.3869 214.837 17.5816C213.211 18.2952 212.365 19.8523 212.365 22.3176C212.365 23.7449 212.69 24.8478 213.276 25.6263C213.991 26.5995 215.032 27.0536 216.333 27.0536C216.918 27.0536 217.504 26.9238 217.959 26.6643C218.349 26.4697 218.739 26.0156 219.13 25.4317L219.065 26.1453L219 26.859L220.365 26.7941L221.731 26.859L221.666 26.0804C221.601 25.6912 221.601 25.0424 221.601 24.0693V21.8634V17.4518V15.1162L221.666 13.2348L221.731 12.1968L220.431 12.2617L218.869 12.3265Z" fill="black"/>
<path d="M224.268 24.3936C224.593 24.0692 224.984 23.9395 225.439 23.9395C225.894 23.9395 226.284 24.1341 226.61 24.3936C226.935 24.718 227.065 25.1072 227.13 25.4965C227.13 25.9506 226.935 26.3399 226.675 26.6643C226.349 26.9887 225.959 27.1184 225.569 27.1184C225.114 27.1184 224.723 26.9887 224.398 26.6643C224.073 26.3399 223.943 25.9506 223.943 25.4965C223.813 25.1072 223.943 24.718 224.268 24.3936Z" fill="black"/>
<path d="M23.0901 13.105L23.0251 13.1699H23.0901V13.105Z" fill="#00A5E8" stroke="white" stroke-width="0.4526"/>
<path d="M40.4566 28.7404L40.7168 28.2214H40.1314L40.4566 28.7404Z" fill="#00A5E8" stroke="white" stroke-width="0.4526"/>
<path d="M17.8867 23.0312L15.8704 25.5615H32.0661V23.0312H17.8867Z" fill="#00A5E8" stroke="white" stroke-width="0.4526"/>
<path d="M32.0661 18.1655H23.0901V20.6308H32.0661V18.1655Z" fill="#00A5E8" stroke="white" stroke-width="0.4526"/>
<path d="M61.6607 28.2214H47.7415V28.6756H61.6607V28.2214Z" fill="#00A5E8" stroke="white" stroke-width="0.4526"/>
<path d="M23.0901 20.6309V21.9284H18.7973L17.8867 23.0313H32.066V20.6309H23.0901Z" fill="#00A5E8" stroke="white" stroke-width="0.4526"/>
<path d="M44.9445 20.6308L46.3104 18.1655H33.3669L34.993 20.6308H44.9445Z" fill="#00A5E8" stroke="white" stroke-width="0.4526"/>
<path d="M33.1718 0.129639H22.4397L21.7242 1.03792H33.6922L33.1718 0.129639Z" fill="#00A5E8" stroke="white" stroke-width="0.4526"/>
<path d="M55.9368 0.129639H46.0503L45.595 1.03792H55.9368V0.129639Z" fill="#00A5E8" stroke="white" stroke-width="0.4526"/>
<path d="M0.325073 28.7404H10.4067L10.797 28.2214H0.650288L0.325073 28.7404Z" fill="#00A5E8" stroke="white" stroke-width="0.4526"/>
<path d="M13.3337 28.7404H32.0661V28.2214H13.7239L13.3337 28.7404Z" fill="#00A5E8" stroke="white" stroke-width="0.4526"/>
<path d="M34.993 20.6309L36.6191 23.0313H43.5787L44.9446 20.6309H34.993Z" fill="#00A5E8" stroke="white" stroke-width="0.4526"/>
<path d="M21.0738 15.5703H10.4718L8.45544 18.1654H18.9924L21.0738 15.5703Z" fill="#00A5E8" stroke="white" stroke-width="0.4526"/>
<path d="M18.9924 18.1655H8.4554L6.56915 20.6308H16.976L18.9924 18.1655Z" fill="#00A5E8" stroke="white" stroke-width="0.4526"/>
<path d="M16.9761 20.6309H6.56923L4.68298 23.0313H15.0248L16.9761 20.6309Z" fill="#00A5E8" stroke="white" stroke-width="0.4526"/>
<path d="M23.025 13.1699H12.358L10.4717 15.5704H21.0737L23.025 13.1699Z" fill="#00A5E8" stroke="white" stroke-width="0.4526"/>
<path d="M38.115 8.17432H16.1955L14.3743 10.5748H39.546L38.115 8.17432Z" fill="#00A5E8" stroke="white" stroke-width="0.4526"/>
<path d="M23.0901 13.1049V13.1698H55.9368V10.5747H40.8469L40.2615 11.7425L39.546 10.5747H14.3744L12.358 13.1698H23.0251L23.0901 13.1049Z" fill="#00A5E8" stroke="white" stroke-width="0.4526"/>
<path d="M2.73164 25.5615L0.650269 28.2215H10.797L12.9434 25.5615H2.73164Z" fill="#00A5E8" stroke="white" stroke-width="0.4526"/>
<path d="M61.6607 25.5615H47.7415V28.2215H61.6607V25.5615Z" fill="#00A5E8" stroke="white" stroke-width="0.4526"/>
<path d="M38.3102 25.5615L40.1314 28.2215H40.7168L42.2128 25.5615H38.3102Z" fill="#00A5E8" stroke="white" stroke-width="0.4526"/>
<path d="M36.6191 5.77393H18.0819L16.1956 8.17437H38.1151L36.6191 5.77393Z" fill="#00A5E8" stroke="white" stroke-width="0.4526"/>
<path d="M15.8703 25.5615L13.7239 28.2215H32.066V25.5615H15.8703Z" fill="#00A5E8" stroke="white" stroke-width="0.4526"/>
<path d="M36.619 23.0312L38.3101 25.5615H42.2127L43.5786 23.0312H36.619Z" fill="#00A5E8" stroke="white" stroke-width="0.4526"/>
<path d="M15.0248 23.0312H4.68298L2.73169 25.5615H12.9434L15.0248 23.0312Z" fill="#00A5E8" stroke="white" stroke-width="0.4526"/>
<path d="M23.0901 18.1654H32.0661V16.2191L33.3669 18.1654H46.3105L47.7414 15.6352V18.1654H55.9368V15.5703H23.0901V18.1654Z" fill="#00A5E8" stroke="white" stroke-width="0.4526"/>
<path d="M55.9368 13.1699H23.0901V15.5704H55.9368V13.1699Z" fill="#00A5E8" stroke="white" stroke-width="0.4526"/>
<path d="M55.9369 18.1655H47.7415V20.6308H55.9369V18.1655Z" fill="#00A5E8" stroke="white" stroke-width="0.4526"/>
<path d="M47.7415 23.0313H61.6607V21.9284H55.9369V20.6309H47.7415V23.0313Z" fill="#00A5E8" stroke="white" stroke-width="0.4526"/>
<path d="M61.6607 23.0312H47.7415V25.5615H61.6607V23.0312Z" fill="#00A5E8" stroke="white" stroke-width="0.4526"/>
<path d="M42.0176 8.17437H55.9368V5.77393H43.2534L42.0176 8.17437Z" fill="#00A5E8" stroke="white" stroke-width="0.4526"/>
<path d="M33.6921 1.03784H21.7242L19.838 3.50317H35.1881L33.6921 1.03784Z" fill="#00A5E8" stroke="white" stroke-width="0.4526"/>
<path d="M55.9368 3.50317V1.03784H45.595L44.3592 3.50317H55.9368Z" fill="#00A5E8" stroke="white" stroke-width="0.4526"/>
<path d="M40.8468 10.5748H55.9368V8.17432H42.0176L40.8468 10.5748Z" fill="#00A5E8" stroke="white" stroke-width="0.4526"/>
<path d="M43.2534 5.77387H55.9368V3.50317H44.3591L43.2534 5.77387Z" fill="#00A5E8" stroke="white" stroke-width="0.4526"/>
<path d="M35.1881 3.50317H19.8379L18.0818 5.77387H36.619L35.1881 3.50317Z" fill="#00A5E8" stroke="white" stroke-width="0.4526"/>
</g>
<defs>
<clipPath id="clip0">
<rect x="-0.00012207" width="227" height="29" fill="white"/>
</clipPath>
</defs>
</svg>
